<?xml version="1.0" standalone="no"?>
<!DOCTYPE svg PUBLIC "-//W3C//DTD SVG 20010904//EN"
 "http://www.w3.org/TR/2001/REC-SVG-20010904/DTD/svg10.dtd">
<svg version="1.0" xmlns="http://www.w3.org/2000/svg"
 width="64.000000pt" height="64.000000pt" viewBox="0 0 64.000000 64.000000"
 preserveAspectRatio="xMidYMid meet">

<g transform="translate(0.000000,64.000000) scale(0.100000,-0.100000)"
fill="#000000" stroke="none">
<path d="M132 565 c-34 -15 -68 -74 -58 -102 3 -8 -4 -33 -16 -56 -29 -57 -29
-147 -1 -202 86 -165 334 -203 471 -72 75 72 100 188 57 267 -10 19 -18 47
-17 63 3 41 -24 86 -64 104 -30 15 -39 15 -67 4 -45 -18 -184 -21 -224 -4 -39
16 -40 16 -81 -2z m89 -16 c28 -14 169 -15 196 -1 63 34 133 -6 133 -76 0 -21
7 -53 16 -71 23 -46 28 -104 14 -155 -48 -171 -303 -234 -448 -111 -78 68
-104 177 -62 260 11 22 20 56 20 78 0 68 70 109 131 76z"/>
<path d="M235 325 c-37 -36 -35 -97 4 -136 41 -40 109 -43 149 -6 32 30 28 35
-27 29 -27 -2 -57 0 -66 6 -17 9 -17 10 3 21 16 8 28 9 41 1 29 -15 49 -12 71
10 26 26 25 46 -5 75 -20 21 -34 25 -85 25 -51 0 -65 -4 -85 -25z m165 -9 c21
-26 8 -61 -24 -64 -39 -5 -54 12 -32 37 17 18 17 19 -3 26 -12 3 -30 3 -42 0
-20 -7 -20 -8 -3 -26 22 -25 7 -42 -32 -37 -32 3 -45 38 -24 64 17 20 143 20
160 0z m-126 -101 c19 -17 39 -25 64 -25 28 0 33 -3 22 -10 -8 -5 -26 -10 -40
-10 -32 0 -90 35 -90 55 0 22 13 19 44 -10z"/>
</g>
</svg>
