<?xml version="1.0" encoding="UTF-8"?>
<!DOCTYPE svg PUBLIC "-//W3C//DTD SVG 1.1//EN" "http://www.w3.org/Graphics/SVG/1.1/DTD/svg11.dtd">
<svg xmlns="http://www.w3.org/2000/svg" version="1.1" width="100px" height="100px" style="shape-rendering:geometricPrecision; text-rendering:geometricPrecision; image-rendering:optimizeQuality; fill-rule:evenodd; clip-rule:evenodd" xmlns:xlink="http://www.w3.org/1999/xlink">
<g><path style="opacity:0.604" fill="#000000" d="M 36.5,7.5 C 43.3763,8.08357 50.2097,8.08357 57,7.5C 60.4589,7.26721 63.6255,8.10054 66.5,10C 79.2076,18.9158 85.3743,31.0825 85,46.5C 83.9196,48.9962 82.5862,51.3295 81,53.5C 80.8814,58.2824 80.2148,62.9491 79,67.5C 77.2365,68.9437 75.2365,69.9437 73,70.5C 70.3301,80.5026 64.1634,87.336 54.5,91C 39.7442,91.6885 30.2442,84.8552 26,70.5C 23.7635,69.9437 21.7635,68.9437 20,67.5C 18.7852,62.9491 18.1186,58.2824 18,53.5C 11.9107,43.7455 12.244,34.0788 19,24.5C 23.4059,17.2593 29.2392,11.5926 36.5,7.5 Z M 59.5,46.5 C 54.7105,44.021 52.3772,40.021 52.5,34.5C 51.5,34.5 50.5,34.5 49.5,34.5C 48.4345,39.9699 45.4345,43.9699 40.5,46.5C 42.2526,42.2454 42.5859,37.912 41.5,33.5C 35.4184,40.7485 29.9184,48.4151 25,56.5C 20.4418,52.2123 17.6084,47.0456 16.5,41C 18.8057,28.7288 25.139,19.0622 35.5,12C 37.5336,10.9944 39.7002,10.4944 42,10.5C 47,11.8333 52,11.8333 57,10.5C 63.6758,11.5133 69.0092,14.8466 73,20.5C 76.0632,24.5689 78.7299,28.9022 81,33.5C 82.434,37.4065 82.7673,41.4065 82,45.5C 79.7202,49.4467 77.0535,53.1134 74,56.5C 70.4078,48.3064 65.5745,40.9731 59.5,34.5C 58.3875,38.4935 58.3875,42.4935 59.5,46.5 Z M 50.5,39.5 C 51.2189,41.0913 52.2189,42.5913 53.5,44C 52.5939,45.6995 52.2606,47.5328 52.5,49.5C 55.7281,49.2994 58.8948,49.6328 62,50.5C 63.6049,48.9361 65.4382,48.4361 67.5,49C 69.8186,51.8031 71.4853,54.9697 72.5,58.5C 71.7617,69.1427 67.4283,77.976 59.5,85C 52.8333,89.6667 46.1667,89.6667 39.5,85C 30.3602,77.249 26.5268,67.4156 28,55.5C 28.9971,52.0053 31.1638,49.672 34.5,48.5C 35.7412,49.0372 36.9079,49.7039 38,50.5C 40.7695,49.6521 43.6029,49.3187 46.5,49.5C 46.4084,45.5933 47.7417,42.2599 50.5,39.5 Z M 60.5,39.5 C 61.8366,40.3149 62.8366,41.4815 63.5,43C 61.0658,43.3329 60.0658,42.1662 60.5,39.5 Z M 38.5,40.5 C 39.7125,41.4971 39.5458,42.4971 38,43.5C 37.5304,42.4232 37.6971,41.4232 38.5,40.5 Z M 40.5,54.5 C 41.2891,54.7828 41.9558,55.2828 42.5,56C 41.184,56.5281 40.5173,56.0281 40.5,54.5 Z M 57.5,54.5 C 58.7733,55.0768 58.7733,55.7435 57.5,56.5C 56.537,56.0302 56.537,55.3635 57.5,54.5 Z M 20.5,56.5 C 23.1194,58.7027 24.1194,61.3694 23.5,64.5C 21.3368,62.3527 20.3368,59.686 20.5,56.5 Z M 77.5,56.5 C 78.731,59.5022 78.0643,62.1689 75.5,64.5C 75.0668,61.7534 75.7335,59.0867 77.5,56.5 Z"/></g>
<g><path style="opacity:0.734" fill="#000000" d="M 33.5,52.5 C 36.5184,52.3354 39.5184,52.502 42.5,53C 44.0368,54.1096 44.7035,55.6096 44.5,57.5C 40.8183,57.6653 37.1516,57.4986 33.5,57C 32.2721,55.5098 32.2721,54.0098 33.5,52.5 Z M 40.5,54.5 C 40.5173,56.0281 41.184,56.5281 42.5,56C 41.9558,55.2828 41.2891,54.7828 40.5,54.5 Z"/></g>
<g><path style="opacity:0.735" fill="#000000" d="M 56.5,52.5 C 59.5184,52.3354 62.5184,52.502 65.5,53C 66.5171,54.0495 66.6838,55.2161 66,56.5C 62.27,57.4601 58.4367,57.7935 54.5,57.5C 54.3915,55.4862 55.0582,53.8195 56.5,52.5 Z M 57.5,54.5 C 56.537,55.3635 56.537,56.0302 57.5,56.5C 58.7733,55.7435 58.7733,55.0768 57.5,54.5 Z"/></g>
<g><path style="opacity:0.513" fill="#000000" d="M 43.5,65.5 C 45.0481,65.8212 45.7148,66.8212 45.5,68.5C 48.1667,68.5 50.8333,68.5 53.5,68.5C 53.281,67.325 53.6143,66.325 54.5,65.5C 55.4519,67.0453 55.7852,68.712 55.5,70.5C 51.5,70.5 47.5,70.5 43.5,70.5C 43.5,68.8333 43.5,67.1667 43.5,65.5 Z"/></g>
<g><path style="opacity:0.578" fill="#000000" d="M 44.5,73.5 C 47.8499,73.335 51.1832,73.5017 54.5,74C 58.5,76 58.5,78 54.5,80C 51.1667,80.6667 47.8333,80.6667 44.5,80C 40.6054,77.8457 40.6054,75.679 44.5,73.5 Z"/></g>
</svg>
