<?xml version="1.0" standalone="no"?>
<!DOCTYPE svg PUBLIC "-//W3C//DTD SVG 20010904//EN"
 "http://www.w3.org/TR/2001/REC-SVG-20010904/DTD/svg10.dtd">
<svg version="1.0" xmlns="http://www.w3.org/2000/svg"
 width="64.000000pt" height="64.000000pt" viewBox="0 0 64.000000 64.000000"
 preserveAspectRatio="xMidYMid meet">

<g transform="translate(0.000000,64.000000) scale(0.100000,-0.100000)"
fill="#000000" stroke="none">
<path d="M126 627 c-20 -15 -25 -53 -12 -104 6 -26 4 -33 -7 -33 -22 0 -47
-28 -47 -52 0 -11 7 -35 16 -53 14 -30 14 -38 -1 -88 -39 -133 42 -255 191
-288 106 -24 228 27 280 117 22 38 28 59 28 108 -1 65 -15 103 -58 149 -21 23
-24 32 -15 48 6 12 17 18 25 15 24 -9 54 12 54 38 0 13 -13 38 -29 55 -23 25
-37 31 -70 31 -47 0 -72 -20 -96 -76 -12 -30 -18 -34 -37 -28 -13 3 -25 12
-27 18 -8 21 -61 67 -70 61 -6 -3 -17 8 -25 24 -15 27 -61 71 -75 71 -4 0 -15
-6 -25 -13z m58 -23 c39 -39 42 -76 10 -109 -25 -25 -51 -18 -63 16 -12 36
-15 92 -4 102 11 12 41 7 57 -9z m337 -54 c22 -12 48 -60 42 -77 -8 -22 -41
-14 -78 18 -39 35 -49 25 -10 -11 19 -18 22 -27 15 -41 -10 -17 -12 -17 -50 0
-22 10 -43 20 -46 23 -8 8 33 85 48 91 22 9 58 7 79 -3z m-237 -39 c20 -22 37
-77 29 -97 -3 -8 -18 -14 -34 -14 -21 0 -32 7 -43 28 l-15 27 -1 -27 c0 -32
-6 -34 -32 -11 -17 15 -18 15 -12 -13 7 -38 -15 -69 -43 -60 -26 8 -56 64 -52
96 4 22 9 25 49 26 71 2 80 3 80 16 0 16 30 48 45 48 7 0 19 -8 29 -19z m117
-73 c84 -25 158 -119 159 -201 1 -143 -162 -250 -315 -207 -53 15 -126 75
-149 124 -18 38 -21 111 -6 151 9 22 15 26 35 21 20 -5 33 1 62 30 31 32 40
35 71 30 45 -7 72 8 72 39 0 29 13 31 71 13z"/>
<path d="M211 296 c-9 -10 -8 -16 3 -25 10 -9 16 -8 25 3 9 10 8 16 -3 25 -10
9 -16 8 -25 -3z"/>
<path d="M394 295 c-4 -9 -2 -21 4 -27 15 -15 44 -1 40 19 -4 23 -36 29 -44 8z"/>
<path d="M284 263 c-12 -2 -32 -15 -45 -29 l-23 -25 24 -44 c43 -78 112 -84
156 -13 33 52 26 84 -21 104 -34 14 -50 15 -91 7z m94 -29 c46 -32 17 -78 -35
-55 -18 8 -29 9 -39 1 -21 -18 -59 -8 -62 17 -7 45 87 71 136 37z m-20 -101
c-14 -17 -62 -17 -77 1 -10 11 -3 14 38 13 40 -1 48 -3 39 -14z"/>
<path d="M301 231 c-11 -7 -9 -10 8 -16 24 -7 44 2 36 16 -8 11 -26 11 -44 0z"/>
<path d="M146 224 c-9 -8 -16 -19 -16 -24 0 -11 29 -40 40 -40 11 0 40 29 40
40 0 5 -7 16 -16 24 -8 9 -19 16 -24 16 -5 0 -16 -7 -24 -16z"/>
<path d="M440 225 c-15 -18 -10 -45 13 -59 34 -22 73 27 47 59 -16 19 -44 19
-60 0z"/>
</g>
</svg>
