<?xml version="1.0" encoding="UTF-8"?>
<!DOCTYPE svg PUBLIC "-//W3C//DTD SVG 1.1//EN" "http://www.w3.org/Graphics/SVG/1.1/DTD/svg11.dtd">
<svg xmlns="http://www.w3.org/2000/svg" version="1.1" width="48px" height="48px" style="shape-rendering:geometricPrecision; text-rendering:geometricPrecision; image-rendering:optimizeQuality; fill-rule:evenodd; clip-rule:evenodd" xmlns:xlink="http://www.w3.org/1999/xlink">
<g><path style="opacity:0.727" fill="#000000" d="M 13.5,8.5 C 18.4058,7.30572 21.4058,9.13905 22.5,14C 22.3865,15.2798 21.7199,16.1131 20.5,16.5C 18.8333,15.5 17.5,14.1667 16.5,12.5C 14.5879,14.6572 12.9213,16.9906 11.5,19.5C 19.5,20.8333 27.5,20.8333 35.5,19.5C 34.0787,16.9906 32.4121,14.6572 30.5,12.5C 29.5,14.1667 28.1667,15.5 26.5,16.5C 24.0529,13.8995 24.3862,11.3995 27.5,9C 30.3471,8.05611 32.8471,8.55611 35,10.5C 37.0836,14.3359 39.417,18.0026 42,21.5C 42.8295,26.8643 42.6628,32.1977 41.5,37.5C 36.5544,38.6143 31.5544,38.781 26.5,38C 25.354,37.3551 24.354,36.5217 23.5,35.5C 22.646,36.5217 21.646,37.3551 20.5,38C 15.4456,38.781 10.4456,38.6143 5.5,37.5C 4.33719,32.1977 4.17053,26.8643 5,21.5C 7.84375,17.1382 10.6771,12.8049 13.5,8.5 Z M 8.5,24.5 C 18.5,24.5 28.5,24.5 38.5,24.5C 38.5,27.8333 38.5,31.1667 38.5,34.5C 35.1501,34.665 31.8168,34.4983 28.5,34C 27.1922,31.2049 25.5255,28.7049 23.5,26.5C 21.4745,28.7049 19.8078,31.2049 18.5,34C 15.1832,34.4983 11.8499,34.665 8.5,34.5C 8.5,31.1667 8.5,27.8333 8.5,24.5 Z"/></g>
<g><path style="opacity:0.672" fill="#000000" d="M 10.5,26.5 C 13.5719,26.1826 16.5719,26.5159 19.5,27.5C 18.9264,29.0589 18.2598,30.5589 17.5,32C 15.1902,32.4966 12.8568,32.6633 10.5,32.5C 10.5,30.5 10.5,28.5 10.5,26.5 Z"/></g>
<g><path style="opacity:0.672" fill="#000000" d="M 27.5,26.5 C 30.5,26.5 33.5,26.5 36.5,26.5C 36.5,28.5 36.5,30.5 36.5,32.5C 30.9478,33.993 27.9478,31.993 27.5,26.5 Z"/></g>
</svg>
